<svg width="369" height="157" xmlns="http://www.w3.org/2000/svg">

 <g>
  <title>Layer 1</title>
  <g>
   <path fill="#515356" d="m91.40697,18.8708c-0.92131,-0.64192 -2.09719,-0.79305 -3.1519,-0.40539l-3.53957,1.30156l1.52552,-4.20436c0.26424,-0.72764 0.27681,-1.52552 0.03029,-2.26089l-3.07908,-9.23916c-0.3751,-1.12271 -1.29898,-1.97377 -2.4494,-2.25315c-1.14785,-0.27939 -2.36143,0.05027 -3.20991,0.87619l-20.12017,19.57622l-9.94649,3.01334c-0.40023,0.12084 -0.77275,0.31484 -1.10273,0.56909c-0.27681,0.21397 -6.90544,5.33964 -15.26841,13.08873c-11.28833,10.46016 -19.88074,20.22297 -25.54263,29.01646c-0.67962,1.05729 -0.72764,2.40687 -0.126,3.5096s1.75979,1.78751 3.01591,1.78751l7.1597,0c-3.1316,5.2362 -6.98117,13.72549 -7.15712,24.0068c-0.02256,1.31928 0.71507,2.53738 1.89836,3.1316l5.08539,2.54286c0.41022,4.60717 2.32631,15.47304 11.21293,24.31422c1.02217,1.01701 2.57057,1.28899 3.87696,0.68478l6.53035,-3.04137c1.16815,1.74723 2.84222,4.19921 4.65487,6.67665c6.37921,8.7255 9.01778,10.43244 11.42432,10.43244c2.76424,0 5.47821,-2.33629 9.67999,-8.33783c0.94902,-1.35956 1.83294,-2.70881 2.56541,-3.86697l6.34151,4.6626c1.32412,0.9719 3.14933,0.87619 4.36033,-0.23653c6.72692,-6.17297 7.99818,-14.77763 8.11129,-19.7222l3.31303,0c1.85808,0 3.38102,-1.47009 3.43645,-3.33301c0.46823,-15.6593 -8.52184,-37.81317 -10.30644,-42.04267l0.15855,-25.5929l11.45977,-16.21034c0.40797,-0.57908 0.62935,-1.27384 0.62935,-1.98376l0,-3.64011c0,-1.12303 -0.54911,-2.17549 -1.47042,-2.81999z"/>
   <path fill="#c91f10" d="m80.62973,69.11757c0,0 -12.887,9.14345 -17.21479,9.06289c-4.33036,-0.07057 -25.95543,-10.83525 -26.28509,-8.96718s20.61579,15.84524 26.28509,15.84524c5.66705,0 17.4916,-15.2813 17.21479,-15.94094z"/>
   <g>
    <polygon fill="#c91f10" points="15.224746704101562,73.2462158203125 12.913589477539062,78.346435546875 27.613555908203125,62.783782958984375 "/>
    <polygon fill="#c91f10" points="49.66947937011719,24.545257568359375 46.19499206542969,38.686126708984375 57.41307067871094,22.261810302734375 "/>
    <polygon fill="#c91f10" points="84.71551513671875,19.7669677734375 85.87109375,16.582183837890625 79.57469177246094,24.3212890625 88.25508117675781,18.465423583984375 "/>
   </g>
  </g>
  <text font-weight="bold" xml:space="preserve" text-anchor="start" font-family="'Oxanium'" font-size="44" id="svg_3" y="68.39999" x="115.39999" stroke-width="0" stroke="#000" fill="#000000">GymBeast</text>
  <text font-weight="normal" xml:space="preserve" text-anchor="start" font-family="'Oxanium'" font-size="25" id="svg_4" y="118.39999" x="104.39999" stroke-width="0" stroke="#000" fill="#000000">Find your inner beast</text>
 </g>
</svg>